<?xml version="1.0" standalone="no"?>
<!DOCTYPE svg PUBLIC "-//W3C//DTD SVG 20010904//EN"
 "http://www.w3.org/TR/2001/REC-SVG-20010904/DTD/svg10.dtd">
<svg version="1.0" xmlns="http://www.w3.org/2000/svg"
 width="520.000000pt" height="520.000000pt" viewBox="0 0 520.000000 520.000000"
 preserveAspectRatio="xMidYMid meet">

<g transform="translate(0.000000,520.000000) scale(0.100000,-0.100000)"
fill="#000000" stroke="none">
<path d="M2265 5090 c-378 -66 -678 -172 -965 -343 -451 -267 -749 -586 -990
-1062 -179 -351 -265 -721 -263 -1130 1 -388 80 -730 247 -1065 234 -469 563
-825 991 -1071 262 -150 613 -277 895 -323 294 -49 600 -49 840 0 485 98 908
289 1220 553 409 345 703 799 825 1275 69 267 90 450 88 766 -1 197 -4 242
-26 360 -54 282 -189 616 -340 845 -108 162 -218 306 -301 392 -96 101 -264
252 -356 319 -30 22 -72 53 -93 68 -37 27 -95 61 -228 136 -75 42 -288 135
-397 174 -153 54 -360 100 -549 121 -210 23 -407 18 -598 -15z m642 -150 c75
-10 318 -56 357 -67 26 -7 133 -253 120 -275 -8 -13 -1574 -10 -1574 3 0 19
52 162 76 210 l23 46 143 31 c124 27 208 41 333 55 71 9 450 6 522 -3z m-1251
-227 c-32 -162 -49 -355 -41 -463 26 -362 155 -680 406 -1003 91 -117 283
-332 378 -425 l64 -62 62 57 c35 32 63 61 64 65 0 4 -20 26 -45 50 -141 131
-336 330 -318 324 30 -9 200 -24 359 -31 94 -4 180 -2 263 7 67 8 122 13 122
10 0 -2 -71 -75 -157 -162 -87 -86 -152 -155 -145 -152 13 5 38 25 90 75 12
12 22 16 22 9 0 -6 5 -12 11 -12 6 0 8 7 5 16 -9 24 3 35 24 21 19 -11 19 -12
2 -19 -12 -5 -9 -7 13 -7 22 -1 33 -8 42 -28 12 -26 10 -30 -95 -132 -98 -97
-141 -143 -181 -194 -13 -17 -2 -30 129 -162 l144 -144 -280 -3 c-261 -3 -280
-2 -279 14 1 10 5 21 10 25 4 5 5 2 1 -4 -17 -30 14 -9 44 30 33 41 33 41 4
15 -36 -34 -42 -34 -46 -5 -2 12 -9 21 -17 19 -9 -2 -12 4 -8 18 4 15 -1 24
-16 30 -12 5 -16 9 -10 9 7 1 20 15 29 33 9 18 45 67 80 110 68 84 87 119 28
53 -95 -106 -234 -288 -228 -297 4 -6 3 -8 -3 -5 -13 8 -41 -23 -130 -143
-143 -192 -296 -488 -350 -672 -84 -295 -112 -519 -93 -751 11 -135 37 -278
64 -356 9 -24 16 -48 16 -53 0 -29 -219 62 -365 152 -38 24 -84 51 -101 61
-101 57 -312 246 -449 404 -194 222 -384 564 -465 835 -128 431 -142 779 -50
1226 69 336 278 738 533 1029 205 233 490 451 762 582 88 42 109 43 101 6z
m2084 -53 c145 -73 263 -158 481 -346 289 -250 536 -629 673 -1033 88 -257 90
-277 91 -636 0 -330 -4 -370 -61 -615 -93 -403 -285 -752 -582 -1061 -202
-210 -412 -372 -614 -474 -104 -52 -213 -93 -222 -84 -3 3 6 34 19 70 46 127
56 202 62 439 10 415 -44 684 -198 992 -88 175 -274 431 -444 608 -126 132
-225 241 -225 249 0 4 78 85 173 181 217 220 315 337 421 509 126 202 192 371
236 604 30 163 27 388 -11 655 -1 4 -1 10 0 14 1 10 131 -37 201 -72z m-336
-227 c7 -48 8 -211 0 -250 l-6 -30 -806 1 -807 1 -3 152 -3 153 788 3 c434 1
798 3 809 5 18 2 23 -5 28 -35z m-29 -403 c7 -11 -51 -187 -89 -273 -24 -55
-26 -57 -48 -45 -18 9 -168 12 -675 12 -454 0 -654 3 -657 10 -55 132 -106
272 -106 292 0 14 1567 17 1575 4z m-182 -439 c9 -9 -115 -216 -166 -276 l-25
-30 -26 24 c-22 21 -40 26 -109 30 -138 10 -618 -4 -655 -19 -30 -11 -35 -10
-56 9 -29 27 -176 244 -176 259 0 16 205 20 754 16 254 -2 454 -8 459 -13z
m-907 -1199 c1 -7 0 -8 -2 -3 -3 6 -12 7 -21 4 -11 -4 -14 -3 -9 6 9 14 29 10
32 -7z m-118 -47 c0 -14 -4 -27 -8 -30 -3 -2 -5 6 -4 18 1 12 3 25 3 30 2 18
9 5 9 -18z m96 -17 c6 -4 16 -2 23 4 10 8 12 7 7 -6 -3 -9 -11 -16 -18 -16 -6
0 -20 -16 -30 -35 -21 -38 -33 -38 -33 0 0 23 8 30 30 26 5 -1 6 13 3 31 -3
18 -3 26 1 18 3 -8 11 -18 17 -22z m350 -98 c269 0 277 1 298 22 15 15 25 18
37 11 9 -5 62 -72 118 -149 81 -111 98 -141 87 -147 -18 -10 -1099 -5 -1109 5
-9 9 31 69 111 168 38 47 80 101 94 121 l24 37 32 -34 31 -34 277 0z m-404 46
c0 -3 -4 -8 -10 -11 -5 -3 -10 -1 -10 4 0 6 5 11 10 11 6 0 10 -2 10 -4z m5
-36 c3 -5 -1 -10 -9 -10 -9 0 -16 5 -16 10 0 6 4 10 9 10 6 0 13 -4 16 -10z
m-187 -385 c26 -14 107 -15 621 -13 l590 3 50 -125 c27 -69 54 -136 59 -150
l10 -25 -747 0 -746 0 3 25 c3 18 122 298 128 300 0 0 15 -7 32 -15z m952
-445 l407 0 11 -57 c6 -32 14 -89 17 -128 4 -38 9 -77 11 -86 4 -14 -71 -16
-821 -16 l-825 0 0 36 c0 20 9 85 20 145 11 60 20 112 20 114 0 3 169 2 377
-1 207 -4 559 -7 783 -7z m-157 -422 l599 -2 -4 -132 c-1 -73 -6 -135 -9 -138
-3 -3 -368 -7 -812 -8 -711 -3 -808 -1 -811 12 -3 8 -8 72 -11 142 l-7 128
199 3 c109 2 212 2 228 0 17 -1 299 -3 628 -5z m86 -410 l474 5 -7 -29 c-15
-62 -107 -235 -129 -243 -51 -20 -341 -73 -447 -83 -122 -11 -382 -5 -522 13
-46 5 -132 21 -193 35 -60 14 -120 27 -133 30 -17 3 -32 26 -63 92 -60 129
-79 180 -69 184 5 2 146 0 312 -3 167 -4 516 -4 777 -1z"/>
<path d="M1148 3939 c-31 -17 -40 -49 -43 -146 -3 -90 -2 -94 24 -114 l26 -21
5 84 5 83 30 3 c27 3 55 25 55 43 0 4 -9 9 -21 12 -11 3 -25 19 -32 36 -12 33
-21 37 -49 20z"/>
<path d="M947 3639 c-119 -98 -101 -280 35 -350 40 -20 111 -25 152 -9 40 15
107 81 127 125 10 22 18 58 18 80 l-1 40 -9 -49 c-9 -56 -22 -68 -64 -63 -16
3 -52 -2 -78 -10 -75 -22 -118 1 -162 88 -33 63 -41 112 -21 128 13 11 14 8
11 -26 l-5 -38 10 38 c6 21 15 47 20 58 14 25 11 24 -33 -12z"/>
<path d="M595 2953 c-88 -5 -104 -10 -125 -46 -17 -27 -20 -50 -20 -148 0
-113 1 -116 28 -141 56 -53 42 -52 567 -52 519 0 543 2 599 47 l29 23 -2 129
c-2 132 -13 176 -46 189 -16 6 -913 5 -1030 -1z m955 -176 l0 -84 -267 -4
c-148 -3 -365 -2 -483 1 l-215 5 -3 77 -3 77 103 4 c57 1 275 4 486 5 l382 2
0 -83z"/>
<path d="M2424 2488 l-19 -23 23 19 c21 18 27 26 19 26 -2 0 -12 -10 -23 -22z"/>
<path d="M765 2443 c-120 -2 -198 -7 -212 -15 -13 -6 -32 -31 -44 -55 -18 -37
-21 -57 -17 -126 5 -92 23 -134 70 -161 27 -16 66 -17 501 -11 517 7 533 9
582 66 23 28 25 39 25 122 0 100 -16 143 -62 169 -23 13 -342 17 -843 11z
m785 -145 c0 -114 34 -103 -323 -101 -172 2 -376 6 -455 9 l-142 6 0 64 0 64
343 1 c282 1 492 8 565 17 8 2 12 -16 12 -60z"/>
<path d="M607 1941 c-46 -5 -62 -12 -78 -31 -26 -35 -39 -84 -39 -155 0 -81
23 -124 80 -152 44 -23 48 -23 493 -23 494 0 477 -2 535 64 72 82 69 228 -6
286 -24 19 -41 20 -476 19 -248 -1 -477 -5 -509 -8z m913 -168 l0 -73 -439 0
c-495 0 -451 -8 -451 85 l0 54 83 4 c45 2 245 3 444 3 l363 -1 0 -72z"/>
<path d="M3933 3751 c-38 -10 -123 -53 -178 -91 -87 -60 -158 -159 -185 -260
-13 -48 -23 -60 -56 -60 -11 0 -43 -11 -70 -25 -107 -53 -183 -143 -224 -266
-33 -95 -25 -213 18 -300 39 -79 126 -170 195 -203 86 -42 155 -47 571 -41
212 2 392 2 401 -1 12 -5 15 -24 15 -94 0 -49 4 -91 9 -94 5 -3 15 32 22 79
11 74 15 86 33 89 106 20 141 32 196 64 194 115 286 301 235 478 -47 163 -184
304 -322 330 -28 5 -37 16 -75 93 -57 115 -152 212 -261 266 -74 36 -84 39
-185 41 -59 2 -121 -1 -139 -5z m261 -145 c57 -25 153 -104 180 -148 44 -75
59 -111 65 -168 l6 -55 75 -6 c133 -11 202 -58 260 -177 36 -75 39 -137 9
-217 -26 -70 -104 -157 -162 -180 -48 -19 -135 -35 -154 -28 -24 9 -14 51 17
74 39 29 60 77 59 131 -1 24 -3 32 -6 18 -11 -69 -11 -70 -52 -70 -58 0 -69 7
-97 62 l-26 50 28 29 c32 33 28 36 -21 12 l-35 -17 -69 65 c-38 35 -69 72 -70
82 -1 21 -18 22 -64 2 -47 -20 -121 -19 -152 1 -31 21 -85 101 -85 128 0 45
84 128 140 139 14 2 6 3 -17 2 -107 -6 -203 -100 -203 -196 0 -94 66 -176 159
-199 63 -15 95 -8 144 32 l38 30 52 -50 c29 -27 62 -54 73 -60 18 -10 20 -18
17 -59 -6 -58 22 -106 77 -134 48 -25 60 -37 60 -60 0 -20 -4 -20 -77 -13 -43
4 -244 8 -448 8 -424 1 -407 -2 -498 95 -114 122 -119 262 -16 392 35 45 114
89 157 89 72 0 91 10 103 54 30 116 44 154 74 199 58 86 154 143 270 161 47 7
155 -3 189 -18z"/>
<path d="M4307 2198 c-37 -58 -43 -100 -23 -166 10 -30 14 -57 9 -61 -4 -4
-25 -19 -45 -35 -43 -31 -51 -68 -18 -86 11 -6 19 -7 18 -3 -4 11 62 113 72
113 5 0 30 -12 58 -26 38 -20 57 -24 85 -19 53 10 125 59 133 90 8 34 1 39
-34 27 -68 -24 -188 27 -219 94 -14 28 -15 42 -6 74 13 51 4 51 -30 -2z"/>
<path d="M3922 1837 c-72 -75 -81 -192 -20 -280 45 -64 179 -98 246 -63 35 19
96 83 116 123 22 45 20 56 -6 39 -13 -8 -58 -24 -101 -36 l-78 -21 -45 28
c-78 49 -111 150 -72 226 14 27 -5 20 -40 -16z"/>
</g>
</svg>
